<?xml version="1.0" standalone="no"?>
<!DOCTYPE svg PUBLIC "-//W3C//DTD SVG 20010904//EN"
 "http://www.w3.org/TR/2001/REC-SVG-20010904/DTD/svg10.dtd">
<svg version="1.0" xmlns="http://www.w3.org/2000/svg"
 width="500.000000pt" height="500.000000pt" viewBox="0 0 500.000000 500.000000"
 preserveAspectRatio="xMidYMid meet">
<metadata>
Created by potrace 1.16, written by Peter Selinger 2001-2019
</metadata>
<g transform="translate(0.000000,500.000000) scale(0.100000,-0.100000)"
fill="#000000" stroke="none">
<path d="M480 4984 c-30 -8 -89 -31 -130 -51 -105 -51 -232 -178 -283 -283
-72 -148 -67 18 -67 -2150 0 -2168 -5 -2002 67 -2150 51 -105 178 -232 283
-283 148 -72 -18 -67 2150 -67 2168 0 2002 -5 2150 67 105 51 232 178 283 283
72 148 67 -18 67 2150 0 2168 5 2002 -67 2150 -51 105 -178 232 -283 283 -148
72 18 67 -2155 66 -1675 0 -1968 -2 -2015 -15z m2520 -620 c445 -149 824 -440
1074 -825 167 -259 291 -588 326 -872 18 -140 8 -444 -18 -565 -42 -190 -131
-413 -232 -577 -113 -185 -321 -418 -495 -555 l-79 -62 -16 22 c-8 12 -153
248 -322 523 l-306 501 59 118 c33 66 172 338 310 605 l250 485 -381 622
c-209 343 -380 626 -380 630 0 14 68 -3 210 -50z m-363 -110 c27 -5 61 -56
349 -526 175 -287 325 -533 333 -548 13 -26 3 -48 -260 -561 -150 -293 -281
-541 -291 -551 -17 -17 -54 -18 -617 -18 -556 0 -600 1 -619 18 -11 9 -167
257 -346 551 l-326 534 171 336 c389 761 388 759 417 764 43 7 1157 8 1189 1z
m-1607 -1734 c194 -316 363 -592 376 -612 l24 -38 674 0 c628 0 674 -1 688
-17 22 -27 628 -1021 628 -1032 0 -14 -191 -94 -331 -139 -144 -46 -282 -76
-424 -93 -142 -17 -422 -6 -549 21 -498 106 -909 398 -1213 862 -292 445 -391
1032 -267 1577 13 61 18 71 29 60 8 -8 172 -273 365 -589z"/>
<path d="M1936 3815 c-317 -66 -533 -380 -487 -709 22 -158 81 -281 191 -399
141 -151 297 -221 495 -221 173 1 310 58 431 180 210 210 243 544 82 819 -50
85 -162 197 -249 248 -136 80 -318 112 -463 82z"/>
</g>
</svg>
